<?xml version="1.0" encoding="utf-8"?>
<!-- Generator: Adobe Illustrator 17.0.0, SVG Export Plug-In . SVG Version: 6.00 Build 0)  -->
<!DOCTYPE svg PUBLIC "-//W3C//DTD SVG 1.1//EN" "http://www.w3.org/Graphics/SVG/1.1/DTD/svg11.dtd">
<svg version="1.1" id="Layer_1" xmlns="http://www.w3.org/2000/svg" xmlns:xlink="http://www.w3.org/1999/xlink" x="0px" y="0px"
	 width="1200px" height="1200px" viewBox="0 0 1200 1200" enable-background="new 0 0 1200 1200" xml:space="preserve">
<g>
	<g>
		<path fill="#7C7978" d="M819.118,551.295l23.754-12.122c9.412-4.706,11.115-19.988,3.967-33.836
			c-7.038-13.96-20.458-21.512-29.736-16.783l-17.613,8.986v-62.542c0-44.727-30.61-81.209-68.414-81.209H433.988
			c-37.781,0-68.503,36.482-68.503,81.209v62.966l-18.555-9.41c-9.3-4.729-22.678,2.822-29.69,16.783
			c-7.17,13.848-5.379,29.13,3.965,33.836l24.291,12.414c-21.108,15.553-34.8,40.649-34.8,68.861v82.104
			c0,37.065,23.506,68.636,56.581,80.603v26.083c0,20.349,16.517,36.998,36.907,36.998c20.369,0,36.886-16.65,36.886-36.998v-20.794
			h274.545v20.794c0,20.349,16.56,36.998,36.93,36.998c20.3,0,36.861-16.65,36.861-36.998v-23.573
			c37.31-9.39,64.917-42.934,64.917-83.113v-82.104C854.322,592.056,840.43,566.847,819.118,551.295z M393.071,671.851
			c-23.104,0-41.881-18.754-41.881-41.858c0-23.169,18.777-41.902,41.881-41.902c23.238,0,41.925,18.733,41.925,41.902
			C434.996,653.097,416.308,671.851,393.071,671.851z M687.85,749.632H496.037c-6.969,0-12.685-5.67-12.685-12.639
			c0-7.058,5.716-12.659,12.685-12.659H687.85c7.104,0,12.708,5.601,12.708,12.659C700.558,743.962,694.954,749.632,687.85,749.632z
			 M408.688,532.382c-1.59-6.273-2.577-12.884-2.577-19.853v-63.327c0-36.569,11.361-67.65,56.358-66.351h243.309
			c50.261,2.196,56.289,29.782,56.289,66.351v63.327c0,6.969-0.984,13.58-2.6,19.853H408.688z M774.302,671.851
			c-23.125,0-41.881-18.754-41.881-41.858c0-23.169,18.756-41.902,41.881-41.902c23.104,0,41.904,18.733,41.904,41.902
			C816.206,653.097,797.406,671.851,774.302,671.851z"/>
	</g>
	<path fill="#7C7978" d="M600.01,1150c-303.274,0-549.988-246.691-549.988-549.989C50.022,296.737,296.736,50,600.01,50
		c303.251,0,549.968,246.737,549.968,550.011C1149.978,903.309,903.261,1150,600.01,1150z M600.01,74.917
		c-289.536,0-525.094,235.533-525.094,525.094c0,289.536,235.558,525.071,525.094,525.071
		c289.516,0,525.071-235.535,525.071-525.071C1125.082,310.45,889.526,74.917,600.01,74.917z"/>
</g>
</svg>
